<svg width="0" height="0" class="hidden">
  <symbol xmlns="http://www.w3.org/2000/svg" viewBox="0 0 24 24" id="google-scholar">
    <path d="M11 4L3 9h5.492c-.02.075-.054.144-.07.223a4.212 4.212 0 00-.082.785c0 3.57 3.65 3.168 3.65 3.168v.91c0 .369.484.241.541.99-.242 0-5.056-.138-5.056 3.11 0 3.26 4.25 3.1 4.25 3.1s4.908.219 4.908-3.813c.002-2.41-2.81-3.193-2.81-4.16 0-.98 2.118-1.267 2.118-3.56 0-1.001-.068-1.715-.517-2.222-.035-.035-.058-.059-.092-.082-.008-.007-.018-.012-.025-.02h.123l2.07-1.552V8a.5.5 0 00.012.115A1 1 0 0017 9v1a1 1 0 102 0V9a1 1 0 00-.512-.885A.5.5 0 0018.5 8V5.125L20 4h-9zm.691 3.053c.288-.013.578.057.854.213.207.104.401.252.574.437.357.357.658.875.819 1.486.38 1.451-.114 2.847-1.14 3.112-1.013.287-2.143-.66-2.534-2.1-.173-.702-.15-1.38.047-1.922.001-.007.005-.012.007-.02.004 0 .009-.005.012-.007.056-.214.148-.406.26-.565.205-.3.476-.503.814-.593a1.51 1.51 0 01.287-.041zm.391 8.633c1.693-.127 3.134.805 3.238 2.072.07 1.256-1.232 2.373-2.937 2.488-1.693.115-3.156-.804-3.237-2.06-.08-1.267 1.231-2.373 2.936-2.5z"></path>
  </symbol>
  <symbol xmlns="http://www.w3.org/2000/svg" viewBox="0 0 32 32" id="orcid">
    <path d="M16 3C8.832 3 3 8.832 3 16s5.832 13 13 13 13-5.832 13-13S23.168 3 16 3zm0 2c6.087 0 11 4.913 11 11s-4.913 11-11 11S5 22.087 5 16 9.913 5 16 5zm-5 3a1 1 0 000 2 1 1 0 000-2zm-1 3v11h2V11h-2zm4 0v11h4.5c3.026 0 5.5-2.474 5.5-5.5S21.526 11 18.5 11H14zm2 2h2.5c1.944 0 3.5 1.556 3.5 3.5S20.444 20 18.5 20H16v-7z"></path>
  </symbol>
</svg>